<svg xmlns="http://www.w3.org/2000/svg" xml:space="preserve" width="655.359" height="655.359" style="shape-rendering:geometricPrecision;text-rendering:geometricPrecision;image-rendering:optimizeQuality;fill-rule:evenodd;clip-rule:evenodd" viewBox="0 0 6.827 6.827"><defs><clipPath id="id0"><path d="M3.413 0a3.413 3.413 0 1 1 0 6.827 3.413 3.413 0 0 1 0-6.827z"/></clipPath><style>.fil4{fill:#546e7a}.fil1{fill:#e4c230}.fil6{fill:#6d4c41;fill-rule:nonzero}</style></defs><g id="Layer_x0020_1"><path d="M3.413 0a3.413 3.413 0 1 1 0 6.827 3.413 3.413 0 0 1 0-6.827z" style="fill:#fdd835"/><g style="clip-path:url(#id0)"><g id="_357801800"><path id="_3548784321" class="fil1" d="M4.034 2.756 7.82 6.542l-.004.006-.003.007-.004.006-.004.007-.004.006-.004.006-.004.006-.004.007-.004.006-.004.006-.004.006-.005.006-.004.006-.005.006-.004.006-.005.006-.004.005-.005.006-.005.006-.004.005-.005.006-.005.005-.005.006-.005.005-.005.006-.005.005-.006.005-.005.005-.005.006-.005.005-.006.005-.005.005L3.887 2.94l.006-.005.005-.005.006-.005.005-.005.005-.005.005-.005.006-.006.005-.005.005-.005.005-.006.004-.005.005-.006.005-.006.005-.005.005-.006.004-.006.005-.006.004-.005.005-.006.004-.006.004-.006.005-.006.004-.006.004-.007.004-.006.004-.006.004-.006.004-.007.004-.006.003-.006.004-.007z"/><path id="_354877904" class="fil1" d="M4.296 3.315 8.082 7.1l.003.004.003.005.002.004.003.004.003.005.002.004.003.004.003.005.002.004.003.005.003.004.002.004.003.005.002.004.003.005.002.004-3.786-3.786-.002-.005-.003-.004-.002-.004-.003-.005-.003-.004-.002-.005-.003-.004-.002-.005-.003-.004-.003-.004-.003-.005-.002-.004-.003-.004-.003-.005-.003-.004z"/><path id="_354877832" class="fil1" d="m3.937 1.928 3.786 3.786.011.013.011.013.011.014.01.013.01.014.01.014.01.015.01.014.008.015.009.015.008.016.007.015.008.016.007.016.006.016.007.017.005.016.006.017.005.017.004.017.005.017.003.018.004.017.003.018.002.018.002.018.002.018.001.018v.019l.001.018L4.123 2.41V2.39l-.001-.018-.001-.018-.002-.018-.002-.018-.002-.018-.003-.018-.004-.018-.004-.017L4.1 2.23l-.004-.017-.005-.017-.006-.017-.006-.017-.006-.016-.007-.016-.007-.016-.007-.016-.008-.016-.008-.015-.008-.015-.009-.015-.01-.015L4 2.01l-.01-.014-.01-.014-.01-.014-.01-.013-.012-.013z"/><path id="_354878288" class="fil1" d="m5.072 2.898 3.786 3.786-.156.26L4.915 3.16z"/><path id="_354878312" class="fil1" d="m5.28 3.135 3.786 3.787-.282.11-3.787-3.786z"/><path id="_354878360" class="fil1" d="m4.123 2.41 3.786 3.786v.035l-.001.012-.001.011-.001.012-.002.011v.012l-.002.01-.002.012-.002.011-.002.011-.002.012-.003.01-.002.012-.003.01-.003.011-.003.011-.003.01-.004.011-.003.011-.004.01-.004.01-.004.011-.004.01-.005.01-.004.01-.005.01-.005.01-.005.01-.005.01-.005.01-3.786-3.786.005-.01.005-.01.005-.01.005-.01.005-.01.004-.01.004-.01.005-.01.004-.01.004-.01.003-.011.004-.01.003-.011.004-.011.003-.01.003-.012.002-.01.003-.012.002-.01.003-.012.002-.01.002-.012.001-.011.002-.012.001-.011.001-.012.001-.011.001-.012v-.011l.001-.012v-.011z"/><path id="_354878504" class="fil1" d="m5.103 3.438 3.786 3.786-.237-.14-3.787-3.786z"/><path id="_354878816" class="fil1" d="M4.176 3.162 7.962 6.95l.012.013.012.013.011.013.012.014.01.013.012.014.01.014.01.014.011.015.01.014.01.015-3.786-3.786-.01-.015-.01-.014-.01-.015-.011-.014-.01-.014-.012-.014-.01-.014-.012-.013-.011-.014-.012-.013z"/><path id="_354878744" class="fil1" d="m4.388 3.485 3.787 3.786.006.014.006.015.005.014.006.014.005.015.005.014.005.015.005.015.005.014.005.015.004.015.004.015.004.015.004.016.003.015.004.015.003.016.003.015.003.016.002.016.002.015.003.016.002.016.001.016.002.016.001.016.002.017v.016l.001.016v.016l.001.017v.016L4.491 3.977v-.033l-.001-.016V3.91l-.002-.016V3.88l-.002-.016-.002-.016-.002-.016-.002-.016-.002-.016-.002-.016-.003-.015-.003-.016-.003-.015-.003-.016-.003-.015-.004-.016-.003-.015-.004-.015-.004-.015-.005-.015-.004-.015-.005-.015-.005-.014-.005-.015-.005-.015-.005-.014-.006-.014-.006-.015-.006-.014z"/><path id="_354878720" class="fil1" d="m2.924 2.94 3.787 3.787-.006-.005-.005-.005-.005-.005-.006-.006-.005-.005-3.786-3.786.005.005.005.005.006.005.005.005z"/><path id="_354878768" class="fil1" d="m1.85 2.84 3.787 3.787.202.338-3.786-3.786z"/><path id="_354878792" class="fil1" d="M3.406 5.134 7.192 8.92h-.028l-.028-.002-.027-.001-.028-.003-.027-.003-.027-.004L7 8.902l-.027-.006-.026-.006-.027-.007-.026-.007-.025-.008-.026-.01-.025-.009-.025-.01-.024-.01-.024-.012-.024-.012-.024-.012-.023-.013-.023-.014-.023-.015-.022-.014-.022-.016-.021-.016-.021-.016-.021-.017-.02-.018-3.787-3.786.02.018.021.017.021.016.022.016.022.015.022.015.023.015.023.013.023.013.023.013.024.012.025.011.024.011.025.01.025.01.026.008.025.009.026.007.026.007.027.006.026.005.027.005.027.004.028.004.027.002.028.002.028.001z"/><path id="_354878888" class="fil1" d="m1.83 3.246 3.786 3.787-.283-.111-3.786-3.787z"/><path id="_354879296" class="fil1" d="m1.961 3.298 3.786 3.786-.237.14-3.786-3.786z"/><path id="_354879056" class="fil1" d="M2.053 3.179 5.84 6.965l.028.046-3.786-3.786z"/><path id="_354879272" class="fil1" d="m2.426 3.48 3.786 3.787-.465-.183-3.786-3.786z"/><path id="_354878672" class="fil1" d="M4.175 4.793 7.96 8.579l-.019.02-.019.019-.02.018-.019.018-.02.018-.021.017-.021.016-.022.016-.022.016-.022.014-.022.015-.023.014-.024.013-.023.012-.024.012-.024.011-.025.011-.025.01-.025.01-.025.009-.026.008-.026.007-.026.007-.027.006-.026.006-.027.005-.027.004-.028.003-.027.003-.028.001-.028.002h-.028L3.406 5.134h.028l.028-.002.028-.002.027-.002.028-.004.027-.004.027-.005.026-.005.027-.006.026-.007.026-.007.025-.009.026-.008.025-.01.025-.01.024-.01.025-.012.024-.012.023-.013.023-.013.023-.013.023-.015.022-.015.022-.015.022-.016.02-.016.021-.017.02-.018.02-.018.02-.019.02-.019z"/><path id="_354878864" class="fil1" d="m4.491 3.977 3.786 3.786v.03l-.001.03-.002.029-.002.03-.003.028-.004.029-.005.028-.005.029-.005.028-.007.027-.007.028-.007.027-.008.027-.01.027-.009.026-.01.026-.01.026-.011.025-.012.025-.012.025-.013.024-.013.024-.014.024-.014.023-.015.023-.015.022-.016.023-.016.021-.017.021-.017.021-.018.02-.018.02-3.786-3.786.018-.02.018-.02.017-.021.017-.021.016-.022.016-.022.015-.022.015-.023.014-.023.014-.024.013-.024.013-.024.012-.025.012-.025.01-.025.011-.026.01-.026.01-.027.008-.026.008-.027.008-.027.007-.028.006-.028.006-.028.005-.028.005-.028.003-.03.003-.028.003-.03.002-.029v-.03z"/><path id="_354879800" class="fil1" d="m5.24 3.032 3.786 3.786.04.104L5.28 3.135z"/><path id="_354880016" class="fil1" d="m5.16 3.342 3.786 3.786-.057.096-3.786-3.786z"/><path id="_354879608" class="fil1" d="m4.865 3.298 3.787 3.786-.477.187-3.787-3.786z"/><path id="_357802040" class="fil1" d="M3.888 2.94a1.112 1.112 0 0 1 .45.445l.408-.16.028-.046.202-.338.096.057-.157.26.324-.126.041.103-.283.111.162.096-.056.096-.238-.14-.477.187a1.216 1.216 0 0 1-.213 1.308 1.05 1.05 0 0 1-.769.34c-.3 0-.572-.13-.769-.34a1.216 1.216 0 0 1-.211-1.313l-.465-.182-.237.14-.057-.096.162-.096-.282-.11.04-.104.324.127-.156-.261.095-.057.203.338.028.046.395.155.04-.065c.104-.159.245-.288.408-.375a.72.72 0 0 1-.235-.53.715.715 0 0 1 .717-.717.715.715 0 0 1 .717.717.713.713 0 0 1-.236.53z"/></g></g><path d="M3.413 0a3.413 3.413 0 1 1 0 6.827 3.413 3.413 0 0 1 0-6.827z" style="fill:none"/><path d="M3.406 1.693a.715.715 0 0 1 .628 1.063.72.72 0 0 1-.146.184c.163.087.304.216.408.375.123.187.195.416.195.662 0 .318-.12.607-.316.816a1.05 1.05 0 0 1-.769.34c-.3 0-.572-.13-.769-.34a1.193 1.193 0 0 1-.316-.816c0-.246.072-.475.195-.662.104-.159.245-.288.408-.375a.72.72 0 0 1-.235-.53.715.715 0 0 1 .717-.717z" style="fill:#fffffe"/><path class="fil4" d="M3.387 3.772a.108.108 0 1 1 0 .215.108.108 0 0 1 0-.215zM3.387 3.27a.108.108 0 1 1 0 .215.108.108 0 0 1 0-.215zM3.387 4.273a.108.108 0 1 1 0 .216.108.108 0 0 1 0-.216zM3.585 2.195a.084.084 0 1 1 0 .167.084.084 0 0 1 0-.167zM3.227 2.195a.084.084 0 1 1 0 .167.084.084 0 0 1 0-.167z"/><path d="m3.481 2.48.132.298c-.004.015-.012.02-.026.01l-.3-.3-.005-.007c.058-.037.14-.049.2-.001z" style="fill:#ff5722"/><path class="fil6" d="m1.85 2.84.203.339.028.046.464.182-.041.104-.543-.213-.237.14-.057-.096.162-.096-.282-.11.04-.104.324.127-.156-.261zM4.282 3.407l.464-.182.028-.046.202-.338.096.057-.157.26.324-.126.041.103-.283.111.163.096-.057.096-.238-.14-.542.213z"/></g></svg>